<svg width="180" height="180" viewBox="0 0 180 180" fill="none" xmlns="http://www.w3.org/2000/svg">
<path d="M90 16.2C80.3084 16.2 70.7118 18.1089 61.758 21.8177C52.8041 25.5265 44.6685 30.9626 37.8155 37.8155C30.9626 44.6685 25.5265 52.8041 21.8177 61.758C18.1089 70.7118 16.2 80.3084 16.2 90C16.2 99.6916 18.1089 109.288 21.8177 118.242C25.5265 127.196 30.9626 135.332 37.8155 142.184C44.6685 149.037 52.8041 154.474 61.758 158.182C70.7118 161.891 80.3085 163.8 90 163.8" stroke="#003D9B" stroke-width="32.4"/>
<path d="M90 163.8C99.6916 163.8 109.288 161.891 118.242 158.182C127.196 154.474 135.332 149.037 142.184 142.184C149.037 135.332 154.474 127.196 158.182 118.242C161.891 109.288 163.8 99.6916 163.8 90" stroke="#004E32" stroke-width="32.4"/>
<path d="M163.8 90C163.8 78.3536 161.044 66.8725 155.756 56.4955C150.469 46.1185 142.801 37.1401 133.379 30.2945" stroke="#BA1A1A" stroke-width="32.4"/>
<path d="M103.829 17.5072C114.5 19.5428 124.59 23.9092 133.379 30.2945" stroke="#E8EDFF" stroke-width="32.4"/>
<path d="M90 16.2C94.6404 16.2 99.2705 16.6377 103.829 17.5072" stroke="#E8EDFF" stroke-width="32.4"/>
<path d="M71.9358 90.334V86.5414L79.8939 79.574C80.4905 79.0343 80.9983 78.5407 81.4173 78.0932C81.8364 77.6387 82.156 77.1841 82.3762 76.7296C82.5963 76.2679 82.7064 75.7672 82.7064 75.2275C82.7064 74.6238 82.575 74.1088 82.3122 73.6827C82.0494 73.2495 81.6872 72.9157 81.2256 72.6813C80.7639 72.4469 80.2348 72.3297 79.6382 72.3297C79.0345 72.3297 78.5054 72.454 78.0509 72.7026C77.5963 72.9441 77.2412 73.2956 76.9855 73.7573C76.7369 74.2189 76.6127 74.78 76.6127 75.4405H71.6162C71.6162 73.9561 71.95 72.6742 72.6176 71.5946C73.2852 70.5151 74.2227 69.6841 75.4301 69.1017C76.6446 68.5123 78.0544 68.2175 79.6595 68.2175C81.3144 68.2175 82.7526 68.4945 83.9742 69.0485C85.1958 69.6025 86.1404 70.3766 86.808 71.3709C87.4827 72.3581 87.82 73.5051 87.82 74.812C87.82 75.6429 87.6531 76.4668 87.3193 77.2836C86.9855 78.1003 86.3854 79.0023 85.5189 79.9895C84.6595 80.9767 83.4379 82.1593 81.8541 83.5371L79.2441 85.9448V86.0833H88.0864V90.334H71.9358ZM90.3316 86.7118V82.5996L99.2698 68.5158H102.924V74.0982H100.804L95.5731 82.3865V82.557H108.517V86.7118H90.3316ZM100.868 90.334V85.4547L100.974 83.6543V68.5158H105.907V90.334H100.868Z" fill="#222529"/>
<path opacity="0.85" d="M73.3936 99.552V97.7772H81.7559V99.552H78.6387V107.959H76.5108V99.552H73.3936ZM85.4361 108.108C84.6638 108.108 83.996 107.944 83.4325 107.616C82.8724 107.285 82.4399 106.824 82.1349 106.234C81.83 105.641 81.6776 104.953 81.6776 104.171C81.6776 103.382 81.83 102.692 82.1349 102.102C82.4399 101.509 82.8724 101.048 83.4325 100.72C83.996 100.389 84.6638 100.223 85.4361 100.223C86.2083 100.223 86.8745 100.389 87.4347 100.72C87.9981 101.048 88.4323 101.509 88.7372 102.102C89.0421 102.692 89.1946 103.382 89.1946 104.171C89.1946 104.953 89.0421 105.641 88.7372 106.234C88.4323 106.824 87.9981 107.285 87.4347 107.616C86.8745 107.944 86.2083 108.108 85.4361 108.108ZM85.446 106.468C85.7973 106.468 86.0907 106.368 86.326 106.169C86.5613 105.967 86.7386 105.692 86.858 105.344C86.9806 104.996 87.0419 104.6 87.0419 104.156C87.0419 103.712 86.9806 103.316 86.858 102.968C86.7386 102.619 86.5613 102.344 86.326 102.142C86.0907 101.94 85.7973 101.839 85.446 101.839C85.0914 101.839 84.7931 101.94 84.5511 102.142C84.3125 102.344 84.1319 102.619 84.0092 102.968C83.8899 103.316 83.8303 103.712 83.8303 104.156C83.8303 104.6 83.8899 104.996 84.0092 105.344C84.1319 105.692 84.3125 105.967 84.5511 106.169C84.7931 106.368 85.0914 106.468 85.446 106.468ZM94.6335 100.323V101.914H90.0348V100.323H94.6335ZM91.0788 98.4931H93.1967V105.612C93.1967 105.808 93.2266 105.96 93.2862 106.07C93.3459 106.176 93.4287 106.25 93.5348 106.294C93.6442 106.337 93.7701 106.358 93.9126 106.358C94.0121 106.358 94.1115 106.35 94.2109 106.333C94.3104 106.313 94.3866 106.298 94.4396 106.289L94.7727 107.865C94.6667 107.898 94.5175 107.936 94.3253 107.979C94.133 108.025 93.8994 108.053 93.6243 108.063C93.1139 108.083 92.6664 108.015 92.282 107.86C91.9008 107.704 91.6042 107.462 91.392 107.134C91.1799 106.806 91.0755 106.391 91.0788 105.891V98.4931ZM98.1907 108.103C97.7035 108.103 97.2693 108.019 96.8881 107.85C96.507 107.677 96.2054 107.424 95.9833 107.089C95.7646 106.751 95.6552 106.33 95.6552 105.826C95.6552 105.402 95.7331 105.046 95.8888 104.757C96.0446 104.469 96.2567 104.237 96.5252 104.061C96.7937 103.886 97.0986 103.753 97.44 103.664C97.7847 103.574 98.146 103.511 98.5238 103.475C98.9679 103.428 99.3259 103.385 99.5977 103.345C99.8694 103.302 100.067 103.239 100.189 103.156C100.312 103.074 100.373 102.951 100.373 102.789V102.759C100.373 102.444 100.274 102.2 100.075 102.028C99.8794 101.856 99.601 101.769 99.2397 101.769C98.8585 101.769 98.5553 101.854 98.3299 102.023C98.1045 102.189 97.9554 102.397 97.8825 102.649L95.9237 102.49C96.0231 102.026 96.2186 101.625 96.5103 101.287C96.802 100.946 97.1781 100.684 97.6388 100.502C98.1029 100.316 98.6398 100.223 99.2496 100.223C99.6739 100.223 100.08 100.273 100.468 100.372C100.859 100.472 101.205 100.626 101.507 100.835C101.812 101.044 102.052 101.312 102.228 101.64C102.403 101.965 102.491 102.354 102.491 102.808V107.959H100.483V106.9H100.423C100.3 107.139 100.136 107.349 99.9308 107.531C99.7253 107.71 99.4783 107.851 99.19 107.954C98.9016 108.053 98.5685 108.103 98.1907 108.103ZM98.7972 106.642C99.1088 106.642 99.3839 106.58 99.6225 106.458C99.8612 106.332 100.048 106.163 100.184 105.95C100.32 105.738 100.388 105.498 100.388 105.23V104.419C100.322 104.462 100.231 104.502 100.115 104.539C100.002 104.572 99.8744 104.603 99.7319 104.633C99.5894 104.66 99.4469 104.684 99.3043 104.708C99.1618 104.727 99.0326 104.746 98.9165 104.762C98.668 104.799 98.4509 104.857 98.2653 104.936C98.0797 105.016 97.9355 105.124 97.8327 105.259C97.73 105.392 97.6786 105.558 97.6786 105.757C97.6786 106.045 97.783 106.265 97.9918 106.418C98.204 106.567 98.4724 106.642 98.7972 106.642ZM106.252 97.7772V107.959H104.134V97.7772H106.252Z" fill="#8C97A7"/>
</svg>
